<svg xmlns="http://www.w3.org/2000/svg" version="1.2" baseProfile="tiny" width="323" height="46">
    <g stroke-width="2" fill="none" stroke="#ff8906">
        <path vector-effect="non-scaling-stroke"
            d="M18.2 5.67C7.58 7.08-.52 16.61 2.76 27.5c3.42 11.36 14.88 13.95 25.3 12.86q.61-.06.62-.67l.1-5.11q.01-.58-.57-.58c-6.65.03-14.24 1.07-17.76-5.94-3.33-6.63.15-14.24 7.53-15.9 2.95-.66 6.88-.42 10.25-.41q.52 0 .52-.52V5.99q0-.66-.66-.69-5.04-.27-9.89.37M44.08 28.5h5.89a1.22 1.2-17.4 01.99.51l7.71 11.06a1.14 1.14 0 00.99.49l6.29-.27q.9-.04.38-.77l-8.29-11.85q-.29-.4.16-.61c6.78-3.09 9.82-10.82 5.05-16.94-4.58-5.87-18.17-5.01-25.74-4.39q-.53.04-.53.57l.06 5.24q0 .77.77.69 11.52-1.2 16.94-.04c5.95 1.28 3.91 10.08-1 10.07q-8.05-.03-15.79 0a.96.96 0 00-.96.96v16.62q0 .65.65.65l5.37.01a.77.76-89.6 00.77-.77l-.12-10.81q0-.42.41-.42M131.86 5.5a.31.31 0 00-.22.1l-14.61 15.39a.31.31 0 01-.53-.22V5.81a.31.31 0 00-.31-.31h-6.38a.31.31 0 00-.31.31v34.13a.31.31 0 00.31.31h6.04a.31.31 0 00.31-.3l.36-8.09a.31.31 0 01.09-.19l24.02-25.65a.31.31 0 00-.23-.52h-8.54M164.75 6.01a.51.51 0 00-.51-.51h-5.98a.51.51 0 00-.51.51v33.98a.51.51 0 00.51.51h5.98a.51.51 0 00.51-.51V6.01M206.23 28.04L190.55 5.96q-.33-.47-.9-.46l-5.79.01a.65.65 0 00-.54 1.02q11.05 15.84 22.62 31.8 2.53 3.49 6.66 1.75.4-.17.4-.6V6q0-.5-.5-.5h-5.35a.91.91 0 00-.91.91l.04 21.61q0 .08-.05.02M282.76 40.5a.51.51 0 00.51-.54l-.34-5.48a.51.51 0 00-.51-.48h-16.66a.51.51 0 01-.51-.51V6.01a.51.51 0 00-.51-.51h-5.73a.51.51 0 00-.51.51v33.98a.51.51 0 00.51.51h23.75M320.495 6.043a.52.52 0 00-.52-.52l-25.44-.045a.52.52 0 00-.52.519l-.01 5.48a.52.52 0 00.52.52l25.44.045a.52.52 0 00.52-.519l.01-5.48M71.34 20.53c-1.39 9.65 4.21 16.36 13.29 19.77a1.11 1.11 0 001.46-.78c1.63-6.73-2.73-5.58-5.58-9.1-5.28-6.53-2.01-15.56 5.45-18.79a.81.8-12.8 00.49-.77l-.15-4.5q-.03-.69-.71-.57c-8 1.37-13.09 6.71-14.25 14.74" />
        <path vector-effect="non-scaling-stroke"
            d="M95.57 15.14c5.68 6.11 3.62 15.47-4.46 18.43a.87.86-10.2 00-.57.81v5.27q0 .8.77.59c18.18-5.03 19.82-30.39.11-34.53q-.46-.1-.61.35c-2.03 6.26 1.8 5.9 4.76 9.08M231.45 5.8c-18.94 4.09-19.22 29.27-.48 34.62a.79.79 0 00.96-.52q1.67-5.21-1.94-7.19c-9.62-5.3-7.02-16.94 2.01-21.04a.84.83 76.8 00.48-.79l-.24-4.47a.66.65 82.5 00-.79-.61M241.82 15.45c5.36 6.11 3.08 15.41-4.87 18.18a.9.89-9.4 00-.6.83l-.1 4.7a.92.92 0 001.14.91c18.52-4.6 19.24-28.18.54-34.37q-1.02-.34-1.27.7c-1.53 6.28 2.21 5.7 5.16 9.05M182.59 14.29l-.13 25.69q-.01.52.52.52h5.98q.51 0 .52-.51c.04-4.99 1.15-15.33-1.14-19.57q-2-3.72-4.87-6.5a.52.52 0 00-.88.37M318.02 19.84a.34.34 0 00-.34-.34h-23.24a.34.34 0 00-.34.34v5.84a.34.34 0 00.34.34h23.24a.34.34 0 00.34-.34v-5.84M129.15 25.22a.96.96 0 00-1.45-.08l-3.53 3.62a.96.96 0 00-.05 1.28l8.11 9.87a.96.96 0 00.74.35l6-.02a.96.96 0 00.75-1.55l-10.57-13.47M320.5 34.71a.71.71 0 00-.71-.71h-25.18a.71.71 0 00-.71.71v5.08a.71.71 0 00.71.71h25.18a.71.71 0 00.71-.71v-5.08" />
    </g>
    <path fill="#ff8906"
        d="M2.76 27.5C-.52 16.61 7.58 7.08 18.2 5.67q4.85-.64 9.89-.37.66.03.66.69v5.24q0 .52-.52.52c-3.37-.01-7.3-.25-10.25.41-7.38 1.66-10.86 9.27-7.53 15.9 3.52 7.01 11.11 5.97 17.76 5.94q.58 0 .57.58l-.1 5.11q-.01.61-.62.67c-10.42 1.09-21.88-1.5-25.3-12.86zM43.67 28.92l.12 10.81a.77.76-89.6 01-.77.77l-5.37-.01q-.65 0-.65-.65V23.22a.96.96 0 01.96-.96q7.74-.03 15.79 0c4.91.01 6.95-8.79 1-10.07q-5.42-1.16-16.94.04-.77.08-.77-.69l-.06-5.24q0-.53.53-.57c7.57-.62 21.16-1.48 25.74 4.39 4.77 6.12 1.73 13.85-5.05 16.94q-.45.21-.16.61l8.29 11.85q.52.73-.38.77l-6.29.27a1.14 1.14 0 01-.99-.49l-7.71-11.06a1.22 1.2-17.4 00-.99-.51h-5.89q-.41 0-.41.42zM131.86 5.5h8.54a.31.31 0 01.23.52l-24.02 25.65a.31.31 0 00-.09.19l-.36 8.09a.31.31 0 01-.31.3h-6.04a.31.31 0 01-.31-.31V5.81a.31.31 0 01.31-.31h6.38a.31.31 0 01.31.31v14.96a.31.31 0 00.53.22L131.64 5.6a.31.31 0 01.22-.1zM164.75 39.99a.51.51 0 01-.51.51h-5.98a.51.51 0 01-.51-.51V6.01a.51.51 0 01.51-.51h5.98a.51.51 0 01.51.51v33.98zM206.28 28.02l-.04-21.61a.91.91 0 01.91-.91h5.35q.5 0 .5.5v33.48q0 .43-.4.6-4.13 1.74-6.66-1.75-11.57-15.96-22.62-31.8a.65.65 0 01.54-1.02l5.79-.01q.57-.01.9.46l15.68 22.08q.05.06.05-.02zM282.76 40.5h-23.75a.51.51 0 01-.51-.51V6.01a.51.51 0 01.51-.51h5.73a.51.51 0 01.51.51v27.48a.51.51 0 00.51.51h16.66a.51.51 0 01.51.48l.34 5.48a.51.51 0 01-.51.54zM320.485 11.523a.52.52 0 01-.52.52l-25.44-.045a.52.52 0 01-.52-.521l.01-5.48a.52.52 0 01.52-.52l25.44.045a.52.52 0 01.52.521l-.01 5.48zM84.63 40.3c-9.08-3.41-14.68-10.12-13.29-19.77C72.5 12.5 77.59 7.16 85.59 5.79q.68-.12.71.57l.15 4.5a.81.8-12.8 01-.49.77c-7.46 3.23-10.73 12.26-5.45 18.79 2.85 3.52 7.21 2.37 5.58 9.1a1.11 1.11 0 01-1.46.78z" />
    <path fill="#ff8906"
        d="M95.57 15.14c-2.96-3.18-6.79-2.82-4.76-9.08q.15-.45.61-.35c19.71 4.14 18.07 29.5-.11 34.53q-.77.21-.77-.59v-5.27a.87.86-10.2 01.57-.81c8.08-2.96 10.14-12.32 4.46-18.43zM230.97 40.42c-18.74-5.35-18.46-30.53.48-34.62a.66.65 82.5 01.79.61l.24 4.47a.84.83 76.8 01-.48.79c-9.03 4.1-11.63 15.74-2.01 21.04q3.61 1.98 1.94 7.19a.79.79 0 01-.96.52zM241.82 15.45c-2.95-3.35-6.69-2.77-5.16-9.05q.25-1.04 1.27-.7c18.7 6.19 17.98 29.77-.54 34.37a.92.92 0 01-1.14-.91l.1-4.7a.9.89-9.4 01.6-.83c7.95-2.77 10.23-12.07 4.87-18.18zM182.59 14.29a.52.52 0 01.88-.37q2.87 2.78 4.87 6.5c2.29 4.24 1.18 14.58 1.14 19.57q-.01.51-.52.51h-5.98q-.53 0-.52-.52l.13-25.69zM318.02 25.68a.34.34 0 01-.34.34h-23.24a.34.34 0 01-.34-.34v-5.84a.34.34 0 01.34-.34h23.24a.34.34 0 01.34.34v5.84zM129.15 25.22l10.57 13.47a.96.96 0 01-.75 1.55l-6 .02a.96.96 0 01-.74-.35l-8.11-9.87a.96.96 0 01.05-1.28l3.53-3.62a.96.96 0 011.45.08zM320.5 39.79a.71.71 0 01-.71.71h-25.18a.71.71 0 01-.71-.71v-5.08a.71.71 0 01.71-.71h25.18a.71.71 0 01.71.71v5.08z" />
</svg>