<svg xmlns="http://www.w3.org/2000/svg" viewBox="0 0 451 139"><g stroke-width="2" fill="none"><path stroke="#654192" vector-effect="non-scaling-stroke" d="M62.66 26.6Q37.8 21.22 21.65 37.38C6.42 52.62 4.99 74.71 17.57 92.44c20.65 29.07 62.95 27.82 77.11-6.66"/><path stroke="#694596" vector-effect="non-scaling-stroke" d="M178.13 54.83c-6.32-2.78-15.18-1.93-22.14-1.79a.51.51 0 00-.5.51l-.04 4.46a.49.49 0 00.49.5c4.38-.02 14.67-1 18.33.74 5.01 2.39 2.56 10.55-2.52 10.51q-7.84-.05-15.75.01-.49 0-.49.48l-.04 16.27a.49.48 0 00.49.48h4.66q.63 0 .63-.62V75.5q0-.5.5-.5h6.49a1.18 1.17-17.2 01.97.51l7.68 11.06q.29.42.8.41l6.4-.06M94.68 85.78q6.39-19.73-3.83-36.66c-6.02-9.97-16.96-19.01-28.19-22.52M131.62 60.25c3.82-2.44 8.6-2.16 14.16-1.94a.55.55 0 00.58-.57l-.16-4.51q-.01-.45-.46-.46c-3.86-.08-8.06-.25-11.6.58-11.57 2.73-17.33 14.67-11.45 24.93 4.63 8.06 14.27 9.24 22.9 8.68a.72.72 0 00.67-.71l.06-4.17a.59.59 0 00-.6-.6c-4.39.08-9.63.69-13.32-1.37-7.1-3.96-7.91-15.31-.78-19.86"/><path stroke="#6d4999" vector-effect="non-scaling-stroke" d="M300.9 69.6l.09 16.83q0 .57.57.57h4.89q.54 0 .54-.53l.07-17.08M325.53 86.8q.02-.05.37.17M184.09 86.92l-8.78-12.42a.39.39 0 01.19-.59c8.51-3.13 10.67-13.85 2.63-19.08M234.55 69.1a.32.32 0 01-.55-.22l-.06-15.56a.32.32 0 00-.32-.32h-5.3a.32.32 0 00-.32.32v33.11a.32.32 0 00.32.32h5.02a.32.32 0 00.32-.3l.37-7.75a.32.32 0 01.09-.21l23.3-24.95a.32.32 0 00-.24-.54h-6.93a.32.32 0 00-.23.1l-15.47 16M282.25 53.52a.52.52 0 00-.52-.52h-4.96a.52.52 0 00-.52.52v32.96a.52.52 0 00.52.52h4.96a.52.52 0 00.52-.52V53.52M202.98 81.18c-10.86-4.01-9.69-18.9.52-23.02q.36-.14.35-.54l-.07-3.91a.51.51 0 00-.61-.49c-8.58 1.77-13.62 8.21-13.6 16.95q.02 12.22 13.22 16.71a.8.8 0 001.06-.79l-.14-3.9q-.03-.75-.73-1.01M209.58 86.69c17.92-4.3 18.21-30.72-.16-33.44a.44.43-86.1 00-.5.44l.11 4.1q.02.55.52.76c10.06 4.32 10.8 18.98-.13 22.64q-.42.14-.42.58v4.46q0 .6.58.46M250.7 86.62a.37.37 0 00.28.13h6.18a.37.37 0 00.29-.6l-10.8-13.72a.37.37 0 00-.55-.03l-3.59 3.78a.37.37 0 00-.02.49l8.21 9.95"/><path stroke="#6f4c9c" vector-effect="non-scaling-stroke" d="M325.9 86.97l4-.05q.6-.01.6-.61V53.5q0-.5-.5-.5h-4.5q-.75 0-.75.75v22.02a.25.25 0 01-.46.15l-16.08-22.53a.94.94 0 00-.76-.39h-4.95a.5.49 72.3 00-.4.78l23.43 33.02M307.06 69.39l-5.41-7.96q-.39-.57-.42.12l-.33 8.05M383.11 81.5a.36.36 0 01-.36-.36V53.36a.36.36 0 00-.36-.36h-5.03a.36.36 0 00-.36.36v33.28a.36.36 0 00.36.36h22.88a.36.36 0 00.36-.36l-.07-4.78a.36.36 0 00-.36-.36h-17.06M437.99 53.44a.44.44 0 00-.44-.44h-24.48a.44.44 0 00-.44.44v4.62a.44.44 0 00.44.44h24.48a.44.44 0 00.44-.44v-4.62M349.24 81.24c-10.79-4.13-10.47-18.86.24-22.97a.64.64 0 00.41-.64l-.2-3.93q-.03-.58-.6-.46c-8.13 1.68-13.05 7.59-13.5 15.9q-.68 12.85 13.12 17.76a.84.84 0 001.13-.82l-.13-4.17q-.02-.49-.47-.67M354.92 53.78l.12 4.06q.01.51.48.71c10.18 4.2 10.74 19.02-.2 22.67a.83.83 0 00-.57.79v3.73a.9.9 0 001.15.87c17.85-5.1 17.68-29.36-.28-33.4a.57.57 0 00-.7.57M435.49 67.38a.38.38 0 00-.38-.38h-22.1a.38.38 0 00-.38.38v4.74a.38.38 0 00.38.38h22.1a.38.38 0 00.38-.38v-4.74M438 82.1a.6.6 0 00-.6-.6h-24.3a.6.6 0 00-.6.6v4.3a.6.6 0 00.6.6h24.3a.6.6 0 00.6-.6v-4.3"/><path stroke="#654192" vector-effect="non-scaling-stroke" d="M17.65 91.08q.46.68.72 1.43.13.39.35.05.08-.13.1-.32.02-.25-.16-.57C-2.84 54.76 39.7 13.64 75.73 34.71q.27.16.51.04.47-.26.02-.55-24.31-15.36-46.31-1.97c-16.09 9.8-24.22 30.1-17.7 48.21q2.02 5.61 5.4 10.64"/><path stroke="#654192" vector-effect="non-scaling-stroke" d="M76.15 92.67c19.1-18.72 11.64-56.64-18.69-57.83-27.36-1.07-46.93 27.17-34.85 52q2.51 5.17 7.15 8.72c13.83 10.59 33.83 9.42 46.39-2.89"/><path stroke="#654192" vector-effect="non-scaling-stroke" d="M32.81 98.69q-1.92-1.12-2.54-1.99a.1.1 0 00-.18.03q-.04.13-.09.26-.06.21.1.35c24.28 21.53 62.93 4.91 61.01-28.3q-.7-12.09-8.72-22.2-.52-.66-1.3-.83a.33.32-19.9 00-.27.57c2.38 1.86 3.13 3.91 4.45 7.11 10.15 24.79-9.75 51.52-35.92 50.09q-8.57-.47-16.54-5.09"/></g><path fill="#b469ff" d="M62.66 26.6c11.23 3.51 22.17 12.55 28.19 22.52q10.22 16.93 3.83 36.66c-14.16 34.48-56.46 35.73-77.11 6.66C4.99 74.71 6.42 52.62 21.65 37.38Q37.8 21.22 62.66 26.6zM17.65 91.08q.46.68.72 1.43.13.39.35.05.08-.13.1-.32.02-.25-.16-.57C-2.84 54.76 39.7 13.64 75.73 34.71q.27.16.51.04.47-.26.02-.55-24.31-15.36-46.31-1.97c-16.09 9.8-24.22 30.1-17.7 48.21q2.02 5.61 5.4 10.64zm58.5 1.59c19.1-18.72 11.64-56.64-18.69-57.83-27.36-1.07-46.93 27.17-34.85 52q2.51 5.17 7.15 8.72c13.83 10.59 33.83 9.42 46.39-2.89zm-43.34 6.02q-1.92-1.12-2.54-1.99a.1.1 0 00-.18.03q-.04.13-.09.26-.06.21.1.35c24.28 21.53 62.93 4.91 61.01-28.3q-.7-12.09-8.72-22.2-.52-.66-1.3-.83a.33.32-19.9 00-.27.57c2.38 1.86 3.13 3.91 4.45 7.11 10.15 24.79-9.75 51.52-35.92 50.09q-8.57-.47-16.54-5.09zM131.62 60.25c-7.13 4.55-6.32 15.9.78 19.86 3.69 2.06 8.93 1.45 13.32 1.37a.59.59 0 01.6.6l-.06 4.17a.72.72 0 01-.67.71c-8.63.56-18.27-.62-22.9-8.68-5.88-10.26-.12-22.2 11.45-24.93 3.54-.83 7.74-.66 11.6-.58q.45.01.46.46l.16 4.51a.55.55 0 01-.58.57c-5.56-.22-10.34-.5-14.16 1.94zM178.13 54.83c8.04 5.23 5.88 15.95-2.63 19.08a.39.39 0 00-.19.59l8.78 12.42-6.4.06q-.51.01-.8-.41l-7.68-11.06a1.18 1.17-17.2 00-.97-.51h-6.49q-.5 0-.5.5v10.88q0 .62-.63.62h-4.66a.49.48 0 01-.49-.48l.04-16.27q0-.48.49-.48 7.91-.06 15.75-.01c5.08.04 7.53-8.12 2.52-10.51-3.66-1.74-13.95-.76-18.33-.74a.49.49 0 01-.49-.5l.04-4.46a.51.51 0 01.5-.51c6.96-.14 15.82-.99 22.14 1.79zM234.55 69.1l15.47-16a.32.32 0 01.23-.1h6.93a.32.32 0 01.24.54l-23.3 24.95a.32.32 0 00-.09.21l-.37 7.75a.32.32 0 01-.32.3h-5.02a.32.32 0 01-.32-.32V53.32a.32.32 0 01.32-.32h5.3a.32.32 0 01.32.32l.06 15.56a.32.32 0 00.55.22z"/><rect fill="#b469ff" x="276.25" y="53" width="6" height="34" rx=".52"/><path fill="#b469ff" d="M325.9 86.97q-.35-.22-.37-.17L302.1 53.78a.5.49 72.3 01.4-.78h4.95a.94.94 0 01.76.39l16.08 22.53a.25.25 0 00.46-.15V53.75q0-.75.75-.75h4.5q.5 0 .5.5v32.81q0 .6-.6.61l-4 .05zM383.11 81.5h17.06a.36.36 0 01.36.36l.07 4.78a.36.36 0 01-.36.36h-22.88a.36.36 0 01-.36-.36V53.36a.36.36 0 01.36-.36h5.03a.36.36 0 01.36.36v27.78a.36.36 0 00.36.36z"/><rect fill="#b469ff" x="412.63" y="53" width="25.36" height="5.5" rx=".44"/><path fill="#b469ff" d="M202.98 81.18q.7.26.73 1.01l.14 3.9a.8.8 0 01-1.06.79q-13.2-4.49-13.22-16.71c-.02-8.74 5.02-15.18 13.6-16.95a.51.51 0 01.61.49l.07 3.91q.01.4-.35.54c-10.21 4.12-11.38 19.01-.52 23.02zM209.42 53.25c18.37 2.72 18.08 29.14.16 33.44q-.58.14-.58-.46v-4.46q0-.44.42-.58c10.93-3.66 10.19-18.32.13-22.64q-.5-.21-.52-.76l-.11-4.1a.44.43-86.1 01.5-.44zM349.48 58.27c-10.71 4.11-11.03 18.84-.24 22.97q.45.18.47.67l.13 4.17a.84.84 0 01-1.13.82q-13.8-4.91-13.12-17.76c.45-8.31 5.37-14.22 13.5-15.9q.57-.12.6.46l.2 3.93a.64.64 0 01-.41.64zM354.92 53.78a.57.57 0 01.7-.57c17.96 4.04 18.13 28.3.28 33.4a.9.9 0 01-1.15-.87v-3.73a.83.83 0 01.57-.79c10.94-3.65 10.38-18.47.2-22.67q-.47-.2-.48-.71l-.12-4.06zM307.06 69.39l-.07 17.08q0 .53-.54.53h-4.89q-.57 0-.57-.57l-.09-16.83.33-8.05q.03-.69.42-.12l5.41 7.96z"/><rect fill="#b469ff" x="412.63" y="67" width="22.86" height="5.5" rx=".38"/><path fill="#b469ff" d="M250.7 86.62l-8.21-9.95a.37.37 0 01.02-.49l3.59-3.78a.37.37 0 01.55.03l10.8 13.72a.37.37 0 01-.29.6h-6.18a.37.37 0 01-.28-.13z"/><rect fill="#b469ff" x="412.5" y="81.5" width="25.5" height="5.5" rx=".6"/></svg>