<?xml version="1.0" encoding="UTF-8" standalone="no"?>
<svg xmlns="http://www.w3.org/2000/svg" version="1.2" baseProfile="tiny" viewBox="0.00 0.00 323.00 46.00" width="323.00" height="46.00">
<g stroke-width="2.00" fill="none" stroke-linecap="butt">

<path stroke="#6a448f" vector-effect="non-scaling-stroke" d="
  M 18.20 5.67
  C 7.58 7.08 -0.52 16.61 2.76 27.50
  C 6.18 38.86 17.64 41.45 28.06 40.36
  Q 28.67 40.30 28.68 39.69
  L 28.78 34.58
  Q 28.79 34.00 28.21 34.00
  C 21.56 34.03 13.97 35.07 10.45 28.06
  C 7.12 21.43 10.60 13.82 17.98 12.16
  C 20.93 11.50 24.86 11.74 28.23 11.75
  Q 28.75 11.75 28.75 11.23
  L 28.75 5.99
  Q 28.75 5.33 28.09 5.30
  Q 23.05 5.03 18.20 5.67"
/>
<path stroke="#6a448f" vector-effect="non-scaling-stroke" d="
  M 44.08 28.50
  L 49.97 28.50
  A 1.22 1.20 -17.4 0 1 50.96 29.01
  L 58.67 40.07
  A 1.14 1.14 0.0 0 0 59.66 40.56
  L 65.95 40.29
  Q 66.85 40.25 66.33 39.52
  L 58.04 27.67
  Q 57.75 27.27 58.20 27.06
  C 64.98 23.97 68.02 16.24 63.25 10.12
  C 58.67 4.25 45.08 5.11 37.51 5.73
  Q 36.98 5.77 36.98 6.30
  L 37.04 11.54
  Q 37.04 12.31 37.81 12.23
  Q 49.33 11.03 54.75 12.19
  C 60.70 13.47 58.66 22.27 53.75 22.26
  Q 45.70 22.23 37.96 22.26
  A 0.96 0.96 0.0 0 0 37.00 23.22
  L 37.00 39.84
  Q 37.00 40.49 37.65 40.49
  L 43.02 40.50
  A 0.77 0.76 -89.6 0 0 43.79 39.73
  L 43.67 28.92
  Q 43.67 28.50 44.08 28.50"
/>
<path stroke="#6a448f" vector-effect="non-scaling-stroke" d="
  M 131.86 5.50
  A 0.31 0.31 0.0 0 0 131.64 5.60
  L 117.03 20.99
  A 0.31 0.31 0.0 0 1 116.50 20.77
  L 116.50 5.81
  A 0.31 0.31 0.0 0 0 116.19 5.50
  L 109.81 5.50
  A 0.31 0.31 0.0 0 0 109.50 5.81
  L 109.50 39.94
  A 0.31 0.31 0.0 0 0 109.81 40.25
  L 115.85 40.25
  A 0.31 0.31 0.0 0 0 116.16 39.95
  L 116.52 31.86
  A 0.31 0.31 0.0 0 1 116.61 31.67
  L 140.63 6.02
  A 0.31 0.31 0.0 0 0 140.40 5.50
  L 131.86 5.50"
/>
<path stroke="#6a448f" vector-effect="non-scaling-stroke" d="
  M 164.75 6.01
  A 0.51 0.51 0.0 0 0 164.24 5.50
  L 158.26 5.50
  A 0.51 0.51 0.0 0 0 157.75 6.01
  L 157.75 39.99
  A 0.51 0.51 0.0 0 0 158.26 40.50
  L 164.24 40.50
  A 0.51 0.51 0.0 0 0 164.75 39.99
  L 164.75 6.01"
/>
<path stroke="#6a448f" vector-effect="non-scaling-stroke" d="
  M 206.23 28.04
  L 190.55 5.96
  Q 190.22 5.49 189.65 5.50
  L 183.86 5.51
  A 0.65 0.65 0.0 0 0 183.32 6.53
  Q 194.37 22.37 205.94 38.33
  Q 208.47 41.82 212.60 40.08
  Q 213.00 39.91 213.00 39.48
  L 213.00 6.00
  Q 213.00 5.50 212.50 5.50
  L 207.15 5.50
  A 0.91 0.91 0.0 0 0 206.24 6.41
  L 206.28 28.02
  Q 206.28 28.10 206.23 28.04"
/>
<path stroke="#6a448f" vector-effect="non-scaling-stroke" d="
  M 282.76 40.50
  A 0.51 0.51 0.0 0 0 283.27 39.96
  L 282.93 34.48
  A 0.51 0.51 0.0 0 0 282.42 34.00
  L 265.76 34.00
  A 0.51 0.51 0.0 0 1 265.25 33.49
  L 265.25 6.01
  A 0.51 0.51 0.0 0 0 264.74 5.50
  L 259.01 5.50
  A 0.51 0.51 0.0 0 0 258.50 6.01
  L 258.50 39.99
  A 0.51 0.51 0.0 0 0 259.01 40.50
  L 282.76 40.50"
/>
<path stroke="#6a448f" vector-effect="non-scaling-stroke" d="
  M 320.4948 6.0431
  A 0.52 0.52 0.0 0 0 319.9757 5.5222
  L 294.5357 5.4778
  A 0.52 0.52 0.0 0 0 294.0148 5.9969
  L 294.0052 11.4769
  A 0.52 0.52 0.0 0 0 294.5243 11.9978
  L 319.9643 12.0422
  A 0.52 0.52 0.0 0 0 320.4852 11.5231
  L 320.4948 6.0431"
/>
<path stroke="#6a448f" vector-effect="non-scaling-stroke" d="
  M 71.34 20.53
  C 69.95 30.18 75.55 36.89 84.63 40.30
  A 1.11 1.11 0.0 0 0 86.09 39.52
  C 87.72 32.79 83.36 33.94 80.51 30.42
  C 75.23 23.89 78.50 14.86 85.96 11.63
  A 0.81 0.80 -12.8 0 0 86.45 10.86
  L 86.30 6.36
  Q 86.27 5.67 85.59 5.79
  C 77.59 7.16 72.50 12.50 71.34 20.53"
/>
<path stroke="#6a448f" vector-effect="non-scaling-stroke" d="
  M 95.57 15.14
  C 101.25 21.25 99.19 30.61 91.11 33.57
  A 0.87 0.86 -10.2 0 0 90.54 34.38
  L 90.54 39.65
  Q 90.54 40.45 91.31 40.24
  C 109.49 35.21 111.13 9.85 91.42 5.71
  Q 90.96 5.61 90.81 6.06
  C 88.78 12.32 92.61 11.96 95.57 15.14"
/>
<path stroke="#6a448f" vector-effect="non-scaling-stroke" d="
  M 231.45 5.80
  C 212.51 9.89 212.23 35.07 230.97 40.42
  A 0.79 0.79 0.0 0 0 231.93 39.90
  Q 233.60 34.69 229.99 32.71
  C 220.37 27.41 222.97 15.77 232.00 11.67
  A 0.84 0.83 76.8 0 0 232.48 10.88
  L 232.24 6.41
  A 0.66 0.65 82.5 0 0 231.45 5.80"
/>
<path stroke="#6a448f" vector-effect="non-scaling-stroke" d="
  M 241.82 15.45
  C 247.18 21.56 244.90 30.86 236.95 33.63
  A 0.90 0.89 -9.4 0 0 236.35 34.46
  L 236.25 39.16
  A 0.92 0.92 0.0 0 0 237.39 40.07
  C 255.91 35.47 256.63 11.89 237.93 5.70
  Q 236.91 5.36 236.66 6.40
  C 235.13 12.68 238.87 12.10 241.82 15.45"
/>
<path stroke="#6a448f" vector-effect="non-scaling-stroke" d="
  M 182.59 14.29
  L 182.46 39.98
  Q 182.45 40.50 182.98 40.50
  L 188.96 40.50
  Q 189.47 40.50 189.48 39.99
  C 189.52 35.00 190.63 24.66 188.34 20.42
  Q 186.34 16.70 183.47 13.92
  A 0.52 0.52 0.0 0 0 182.59 14.29"
/>
<path stroke="#6a448f" vector-effect="non-scaling-stroke" d="
  M 318.02 19.84
  A 0.34 0.34 0.0 0 0 317.68 19.50
  L 294.44 19.50
  A 0.34 0.34 0.0 0 0 294.10 19.84
  L 294.10 25.68
  A 0.34 0.34 0.0 0 0 294.44 26.02
  L 317.68 26.02
  A 0.34 0.34 0.0 0 0 318.02 25.68
  L 318.02 19.84"
/>
<path stroke="#6a448f" vector-effect="non-scaling-stroke" d="
  M 129.15 25.22
  A 0.96 0.96 0.0 0 0 127.70 25.14
  L 124.17 28.76
  A 0.96 0.96 0.0 0 0 124.12 30.04
  L 132.23 39.91
  A 0.96 0.96 0.0 0 0 132.97 40.26
  L 138.97 40.24
  A 0.96 0.96 0.0 0 0 139.72 38.69
  L 129.15 25.22"
/>
<path stroke="#6a448f" vector-effect="non-scaling-stroke" d="
  M 320.50 34.71
  A 0.71 0.71 0.0 0 0 319.79 34.00
  L 294.61 34.00
  A 0.71 0.71 0.0 0 0 293.90 34.71
  L 293.90 39.79
  A 0.71 0.71 0.0 0 0 294.61 40.50
  L 319.79 40.50
  A 0.71 0.71 0.0 0 0 320.50 39.79
  L 320.50 34.71"
/>
</g>

<path fill="#b469ff" d="
  M 2.76 27.50
  C -0.52 16.61 7.58 7.08 18.20 5.67
  Q 23.05 5.03 28.09 5.30
  Q 28.75 5.33 28.75 5.99
  L 28.75 11.23
  Q 28.75 11.75 28.23 11.75
  C 24.86 11.74 20.93 11.50 17.98 12.16
  C 10.60 13.82 7.12 21.43 10.45 28.06
  C 13.97 35.07 21.56 34.03 28.21 34.00
  Q 28.79 34.00 28.78 34.58
  L 28.68 39.69
  Q 28.67 40.30 28.06 40.36
  C 17.64 41.45 6.18 38.86 2.76 27.50
  Z"
/>
<path fill="#b469ff" d="
  M 43.67 28.92
  L 43.79 39.73
  A 0.77 0.76 -89.6 0 1 43.02 40.50
  L 37.65 40.49
  Q 37.00 40.49 37.00 39.84
  L 37.00 23.22
  A 0.96 0.96 0.0 0 1 37.96 22.26
  Q 45.70 22.23 53.75 22.26
  C 58.66 22.27 60.70 13.47 54.75 12.19
  Q 49.33 11.03 37.81 12.23
  Q 37.04 12.31 37.04 11.54
  L 36.98 6.30
  Q 36.98 5.77 37.51 5.73
  C 45.08 5.11 58.67 4.25 63.25 10.12
  C 68.02 16.24 64.98 23.97 58.20 27.06
  Q 57.75 27.27 58.04 27.67
  L 66.33 39.52
  Q 66.85 40.25 65.95 40.29
  L 59.66 40.56
  A 1.14 1.14 0.0 0 1 58.67 40.07
  L 50.96 29.01
  A 1.22 1.20 -17.4 0 0 49.97 28.50
  L 44.08 28.50
  Q 43.67 28.50 43.67 28.92
  Z"
/>
<path fill="#b469ff" d="
  M 131.86 5.50
  L 140.40 5.50
  A 0.31 0.31 0.0 0 1 140.63 6.02
  L 116.61 31.67
  A 0.31 0.31 0.0 0 0 116.52 31.86
  L 116.16 39.95
  A 0.31 0.31 0.0 0 1 115.85 40.25
  L 109.81 40.25
  A 0.31 0.31 0.0 0 1 109.50 39.94
  L 109.50 5.81
  A 0.31 0.31 0.0 0 1 109.81 5.50
  L 116.19 5.50
  A 0.31 0.31 0.0 0 1 116.50 5.81
  L 116.50 20.77
  A 0.31 0.31 0.0 0 0 117.03 20.99
  L 131.64 5.60
  A 0.31 0.31 0.0 0 1 131.86 5.50
  Z"
/>
<path fill="#b469ff" d="
  M 164.75 39.99
  A 0.51 0.51 0.0 0 1 164.24 40.50
  L 158.26 40.50
  A 0.51 0.51 0.0 0 1 157.75 39.99
  L 157.75 6.01
  A 0.51 0.51 0.0 0 1 158.26 5.50
  L 164.24 5.50
  A 0.51 0.51 0.0 0 1 164.75 6.01
  L 164.75 39.99
  Z"
/>
<path fill="#b469ff" d="
  M 206.28 28.02
  L 206.24 6.41
  A 0.91 0.91 0.0 0 1 207.15 5.50
  L 212.50 5.50
  Q 213.00 5.50 213.00 6.00
  L 213.00 39.48
  Q 213.00 39.91 212.60 40.08
  Q 208.47 41.82 205.94 38.33
  Q 194.37 22.37 183.32 6.53
  A 0.65 0.65 0.0 0 1 183.86 5.51
  L 189.65 5.50
  Q 190.22 5.49 190.55 5.96
  L 206.23 28.04
  Q 206.28 28.10 206.28 28.02
  Z"
/>
<path fill="#b469ff" d="
  M 282.76 40.50
  L 259.01 40.50
  A 0.51 0.51 0.0 0 1 258.50 39.99
  L 258.50 6.01
  A 0.51 0.51 0.0 0 1 259.01 5.50
  L 264.74 5.50
  A 0.51 0.51 0.0 0 1 265.25 6.01
  L 265.25 33.49
  A 0.51 0.51 0.0 0 0 265.76 34.00
  L 282.42 34.00
  A 0.51 0.51 0.0 0 1 282.93 34.48
  L 283.27 39.96
  A 0.51 0.51 0.0 0 1 282.76 40.50
  Z"
/>
<path fill="#b469ff" d="
  M 320.4852 11.5231
  A 0.52 0.52 0.0 0 1 319.9643 12.0422
  L 294.5243 11.9978
  A 0.52 0.52 0.0 0 1 294.0052 11.4769
  L 294.0148 5.9969
  A 0.52 0.52 0.0 0 1 294.5357 5.4778
  L 319.9757 5.5222
  A 0.52 0.52 0.0 0 1 320.4948 6.0431
  L 320.4852 11.5231
  Z"
/>
<path fill="#b469ff" d="
  M 84.63 40.30
  C 75.55 36.89 69.95 30.18 71.34 20.53
  C 72.50 12.50 77.59 7.16 85.59 5.79
  Q 86.27 5.67 86.30 6.36
  L 86.45 10.86
  A 0.81 0.80 -12.8 0 1 85.96 11.63
  C 78.50 14.86 75.23 23.89 80.51 30.42
  C 83.36 33.94 87.72 32.79 86.09 39.52
  A 1.11 1.11 0.0 0 1 84.63 40.30
  Z"
/>
<path fill="#b469ff" d="
  M 95.57 15.14
  C 92.61 11.96 88.78 12.32 90.81 6.06
  Q 90.96 5.61 91.42 5.71
  C 111.13 9.85 109.49 35.21 91.31 40.24
  Q 90.54 40.45 90.54 39.65
  L 90.54 34.38
  A 0.87 0.86 -10.2 0 1 91.11 33.57
  C 99.19 30.61 101.25 21.25 95.57 15.14
  Z"
/>
<path fill="#b469ff" d="
  M 230.97 40.42
  C 212.23 35.07 212.51 9.89 231.45 5.80
  A 0.66 0.65 82.5 0 1 232.24 6.41
  L 232.48 10.88
  A 0.84 0.83 76.8 0 1 232.00 11.67
  C 222.97 15.77 220.37 27.41 229.99 32.71
  Q 233.60 34.69 231.93 39.90
  A 0.79 0.79 0.0 0 1 230.97 40.42
  Z"
/>
<path fill="#b469ff" d="
  M 241.82 15.45
  C 238.87 12.10 235.13 12.68 236.66 6.40
  Q 236.91 5.36 237.93 5.70
  C 256.63 11.89 255.91 35.47 237.39 40.07
  A 0.92 0.92 0.0 0 1 236.25 39.16
  L 236.35 34.46
  A 0.90 0.89 -9.4 0 1 236.95 33.63
  C 244.90 30.86 247.18 21.56 241.82 15.45
  Z"
/>
<path fill="#b469ff" d="
  M 182.59 14.29
  A 0.52 0.52 0.0 0 1 183.47 13.92
  Q 186.34 16.70 188.34 20.42
  C 190.63 24.66 189.52 35.00 189.48 39.99
  Q 189.47 40.50 188.96 40.50
  L 182.98 40.50
  Q 182.45 40.50 182.46 39.98
  L 182.59 14.29
  Z"
/>
<path fill="#b469ff" d="
  M 318.02 25.68
  A 0.34 0.34 0.0 0 1 317.68 26.02
  L 294.44 26.02
  A 0.34 0.34 0.0 0 1 294.10 25.68
  L 294.10 19.84
  A 0.34 0.34 0.0 0 1 294.44 19.50
  L 317.68 19.50
  A 0.34 0.34 0.0 0 1 318.02 19.84
  L 318.02 25.68
  Z"
/>
<path fill="#b469ff" d="
  M 129.15 25.22
  L 139.72 38.69
  A 0.96 0.96 0.0 0 1 138.97 40.24
  L 132.97 40.26
  A 0.96 0.96 0.0 0 1 132.23 39.91
  L 124.12 30.04
  A 0.96 0.96 0.0 0 1 124.17 28.76
  L 127.70 25.14
  A 0.96 0.96 0.0 0 1 129.15 25.22
  Z"
/>
<path fill="#b469ff" d="
  M 320.50 39.79
  A 0.71 0.71 0.0 0 1 319.79 40.50
  L 294.61 40.50
  A 0.71 0.71 0.0 0 1 293.90 39.79
  L 293.90 34.71
  A 0.71 0.71 0.0 0 1 294.61 34.00
  L 319.79 34.00
  A 0.71 0.71 0.0 0 1 320.50 34.71
  L 320.50 39.79
  Z"
/>

</svg>
