<?xml version="1.0" encoding="UTF-8" standalone="no"?>
<!DOCTYPE svg PUBLIC "-//W3C//DTD SVG 1.1//EN" "http://www.w3.org/Graphics/SVG/1.1/DTD/svg11.dtd">
<svg xmlns="http://www.w3.org/2000/svg" version="1.1" viewBox="0.00 0.00 451.00 139.00">
<g stroke-width="2.00" fill="none" stroke-linecap="butt">

<path stroke="#654192" vector-effect="non-scaling-stroke" d="
  M 62.66 26.60
  Q 37.80 21.22 21.65 37.38
  C 6.42 52.62 4.99 74.71 17.57 92.44
  C 38.22 121.51 80.52 120.26 94.68 85.78"
/>

<path stroke="#694596" vector-effect="non-scaling-stroke" d="
  M 178.13 54.83
  C 171.81 52.05 162.95 52.90 155.99 53.04
  A 0.51 0.51 0.0 0 0 155.49 53.55
  L 155.45 58.01
  A 0.49 0.49 0.0 0 0 155.94 58.51
  C 160.32 58.49 170.61 57.51 174.27 59.25
  C 179.28 61.64 176.83 69.80 171.75 69.76
  Q 163.91 69.71 156.00 69.77
  Q 155.51 69.77 155.51 70.25
  L 155.47 86.52
  A 0.49 0.48 -0.0 0 0 155.96 87.00
  L 160.62 87.00
  Q 161.25 87.00 161.25 86.38
  L 161.25 75.50
  Q 161.25 75.00 161.75 75.00
  L 168.24 75.00
  A 1.18 1.17 -17.2 0 1 169.21 75.51
  L 176.89 86.57
  Q 177.18 86.99 177.69 86.98
  L 184.09 86.92"
/>

<path stroke="#694596" vector-effect="non-scaling-stroke" d="
  M 94.68 85.78
  Q 101.07 66.05 90.85 49.12
  C 84.83 39.15 73.89 30.11 62.66 26.60"
/>
<path stroke="#694596" vector-effect="non-scaling-stroke" d="
  M 131.62 60.25
  C 135.44 57.81 140.22 58.09 145.78 58.31
  A 0.55 0.55 0.0 0 0 146.36 57.74
  L 146.20 53.23
  Q 146.19 52.78 145.74 52.77
  C 141.88 52.69 137.68 52.52 134.14 53.35
  C 122.57 56.08 116.81 68.02 122.69 78.28
  C 127.32 86.34 136.96 87.52 145.59 86.96
  A 0.72 0.72 0.0 0 0 146.26 86.25
  L 146.32 82.08
  A 0.59 0.59 0.0 0 0 145.72 81.48
  C 141.33 81.56 136.09 82.17 132.40 80.11
  C 125.30 76.15 124.49 64.80 131.62 60.25"
/>

<path stroke="#6d4999" vector-effect="non-scaling-stroke" d="
  M 300.90 69.60
  L 300.99 86.43
  Q 300.99 87.00 301.56 87.00
  L 306.45 87.00
  Q 306.99 87.00 306.99 86.47
  L 307.06 69.39"
/>

<path stroke="#6d4999" vector-effect="non-scaling-stroke" d="
  M 325.53 86.80
  Q 325.55 86.75 325.90 86.97"
/>

<path stroke="#6d4999" vector-effect="non-scaling-stroke" d="
  M 184.09 86.92
  L 175.31 74.50
  A 0.39 0.39 0.0 0 1 175.50 73.91
  C 184.01 70.78 186.17 60.06 178.13 54.83"
/>
<path stroke="#6d4999" vector-effect="non-scaling-stroke" d="
  M 234.55 69.10
  A 0.32 0.32 0.0 0 1 234.00 68.88
  L 233.94 53.32
  A 0.32 0.32 0.0 0 0 233.62 53.00
  L 228.32 53.00
  A 0.32 0.32 0.0 0 0 228.00 53.32
  L 228.00 86.43
  A 0.32 0.32 0.0 0 0 228.32 86.75
  L 233.34 86.75
  A 0.32 0.32 0.0 0 0 233.66 86.45
  L 234.03 78.70
  A 0.32 0.32 0.0 0 1 234.12 78.49
  L 257.42 53.54
  A 0.32 0.32 0.0 0 0 257.18 53.00
  L 250.25 53.00
  A 0.32 0.32 0.0 0 0 250.02 53.10
  L 234.55 69.10"
/>
<path stroke="#6d4999" vector-effect="non-scaling-stroke" d="
  M 282.25 53.52
  A 0.52 0.52 0.0 0 0 281.73 53.00
  L 276.77 53.00
  A 0.52 0.52 0.0 0 0 276.25 53.52
  L 276.25 86.48
  A 0.52 0.52 0.0 0 0 276.77 87.00
  L 281.73 87.00
  A 0.52 0.52 0.0 0 0 282.25 86.48
  L 282.25 53.52"
/>
<path stroke="#6d4999" vector-effect="non-scaling-stroke" d="
  M 202.98 81.18
  C 192.12 77.17 193.29 62.28 203.50 58.16
  Q 203.86 58.02 203.85 57.62
  L 203.78 53.71
  A 0.51 0.51 0.0 0 0 203.17 53.22
  C 194.59 54.99 189.55 61.43 189.57 70.17
  Q 189.59 82.39 202.79 86.88
  A 0.80 0.80 0.0 0 0 203.85 86.09
  L 203.71 82.19
  Q 203.68 81.44 202.98 81.18"
/>
<path stroke="#6d4999" vector-effect="non-scaling-stroke" d="
  M 209.58 86.69
  C 227.50 82.39 227.79 55.97 209.42 53.25
  A 0.44 0.43 -86.1 0 0 208.92 53.69
  L 209.03 57.79
  Q 209.05 58.34 209.55 58.55
  C 219.61 62.87 220.35 77.53 209.42 81.19
  Q 209.00 81.33 209.00 81.77
  L 209.00 86.23
  Q 209.00 86.83 209.58 86.69"
/>
<path stroke="#6d4999" vector-effect="non-scaling-stroke" d="
  M 250.70 86.62
  A 0.37 0.37 0.0 0 0 250.98 86.75
  L 257.16 86.75
  A 0.37 0.37 0.0 0 0 257.45 86.15
  L 246.65 72.43
  A 0.37 0.37 0.0 0 0 246.10 72.40
  L 242.51 76.18
  A 0.37 0.37 0.0 0 0 242.49 76.67
  L 250.70 86.62"
/>
<path stroke="#6f4c9c" vector-effect="non-scaling-stroke" d="
  M 325.90 86.97
  L 329.90 86.92
  Q 330.50 86.91 330.50 86.31
  L 330.50 53.50
  Q 330.50 53.00 330.00 53.00
  L 325.50 53.00
  Q 324.75 53.00 324.75 53.75
  L 324.75 75.77
  A 0.25 0.25 0.0 0 1 324.29 75.92
  L 308.21 53.39
  A 0.94 0.94 0.0 0 0 307.45 53.00
  L 302.50 53.00
  A 0.50 0.49 72.3 0 0 302.10 53.78
  L 325.53 86.80"
/>
<path stroke="#6f4c9c" vector-effect="non-scaling-stroke" d="
  M 307.06 69.39
  L 301.65 61.43
  Q 301.26 60.86 301.23 61.55
  L 300.90 69.60"
/>
<path stroke="#6f4c9c" vector-effect="non-scaling-stroke" d="
  M 383.11 81.50
  A 0.36 0.36 0.0 0 1 382.75 81.14
  L 382.75 53.36
  A 0.36 0.36 0.0 0 0 382.39 53.00
  L 377.36 53.00
  A 0.36 0.36 0.0 0 0 377.00 53.36
  L 377.00 86.64
  A 0.36 0.36 0.0 0 0 377.36 87.00
  L 400.24 87.00
  A 0.36 0.36 0.0 0 0 400.60 86.64
  L 400.53 81.86
  A 0.36 0.36 0.0 0 0 400.17 81.50
  L 383.11 81.50"
/>
<path stroke="#6f4c9c" vector-effect="non-scaling-stroke" d="
  M 437.99 53.44
  A 0.44 0.44 0.0 0 0 437.55 53.00
  L 413.07 53.00
  A 0.44 0.44 0.0 0 0 412.63 53.44
  L 412.63 58.06
  A 0.44 0.44 0.0 0 0 413.07 58.50
  L 437.55 58.50
  A 0.44 0.44 0.0 0 0 437.99 58.06
  L 437.99 53.44"
/>
<path stroke="#6f4c9c" vector-effect="non-scaling-stroke" d="
  M 349.24 81.24
  C 338.45 77.11 338.77 62.38 349.48 58.27
  A 0.64 0.64 0.0 0 0 349.89 57.63
  L 349.69 53.70
  Q 349.66 53.12 349.09 53.24
  C 340.96 54.92 336.04 60.83 335.59 69.14
  Q 334.91 81.99 348.71 86.90
  A 0.84 0.84 0.0 0 0 349.84 86.08
  L 349.71 81.91
  Q 349.69 81.42 349.24 81.24"
/>
<path stroke="#6f4c9c" vector-effect="non-scaling-stroke" d="
  M 354.92 53.78
  L 355.04 57.84
  Q 355.05 58.35 355.52 58.55
  C 365.70 62.75 366.26 77.57 355.32 81.22
  A 0.83 0.83 0.0 0 0 354.75 82.01
  L 354.75 85.74
  A 0.90 0.90 0.0 0 0 355.90 86.61
  C 373.75 81.51 373.58 57.25 355.62 53.21
  A 0.57 0.57 0.0 0 0 354.92 53.78"
/>
<path stroke="#6f4c9c" vector-effect="non-scaling-stroke" d="
  M 435.49 67.38
  A 0.38 0.38 0.0 0 0 435.11 67.00
  L 413.01 67.00
  A 0.38 0.38 0.0 0 0 412.63 67.38
  L 412.63 72.12
  A 0.38 0.38 0.0 0 0 413.01 72.50
  L 435.11 72.50
  A 0.38 0.38 0.0 0 0 435.49 72.12
  L 435.49 67.38"
/>
<path stroke="#6f4c9c" vector-effect="non-scaling-stroke" d="
  M 438.00 82.10
  A 0.60 0.60 0.0 0 0 437.40 81.50
  L 413.10 81.50
  A 0.60 0.60 0.0 0 0 412.50 82.10
  L 412.50 86.40
  A 0.60 0.60 0.0 0 0 413.10 87.00
  L 437.40 87.00
  A 0.60 0.60 0.0 0 0 438.00 86.40
  L 438.00 82.10"
/>
<path stroke="#654192" vector-effect="non-scaling-stroke" d="
  M 17.65 91.08
  Q 18.11 91.76 18.37 92.51
  Q 18.50 92.90 18.72 92.56
  Q 18.80 92.43 18.82 92.24
  Q 18.84 91.99 18.66 91.67
  C -2.84 54.76 39.70 13.64 75.73 34.71
  Q 76.00 34.87 76.24 34.75
  Q 76.71 34.49 76.26 34.20
  Q 51.95 18.84 29.95 32.23
  C 13.86 42.03 5.73 62.33 12.25 80.44
  Q 14.27 86.05 17.65 91.08"
/>
<path stroke="#654192" vector-effect="non-scaling-stroke" d="
  M 76.15 92.67
  C 95.25 73.95 87.79 36.03 57.46 34.84
  C 30.10 33.77 10.53 62.01 22.61 86.84
  Q 25.12 92.01 29.76 95.56
  C 43.59 106.15 63.59 104.98 76.15 92.67"
/>
<path stroke="#654192" vector-effect="non-scaling-stroke" d="
  M 32.81 98.69
  Q 30.89 97.57 30.27 96.70
  A 0.10 0.10 0.0 0 0 30.09 96.73
  Q 30.05 96.86 30.00 96.99
  Q 29.94 97.20 30.10 97.34
  C 54.38 118.87 93.03 102.25 91.11 69.04
  Q 90.41 56.95 82.39 46.84
  Q 81.87 46.18 81.09 46.01
  A 0.33 0.32 -19.9 0 0 80.82 46.58
  C 83.20 48.44 83.95 50.49 85.27 53.69
  C 95.42 78.48 75.52 105.21 49.35 103.78
  Q 40.78 103.31 32.81 98.69"
/>
</g>

<path fill="#b469ff" d="
  M 62.66 26.60
  C 73.89 30.11 84.83 39.15 90.85 49.12
  Q 101.07 66.05 94.68 85.78
  C 80.52 120.26 38.22 121.51 17.57 92.44
  C 4.99 74.71 6.42 52.62 21.65 37.38
  Q 37.80 21.22 62.66 26.60
  Z
  M 17.65 91.08
  Q 18.11 91.76 18.37 92.51
  Q 18.50 92.90 18.72 92.56
  Q 18.80 92.43 18.82 92.24
  Q 18.84 91.99 18.66 91.67
  C -2.84 54.76 39.70 13.64 75.73 34.71
  Q 76.00 34.87 76.24 34.75
  Q 76.71 34.49 76.26 34.20
  Q 51.95 18.84 29.95 32.23
  C 13.86 42.03 5.73 62.33 12.25 80.44
  Q 14.27 86.05 17.65 91.08
  Z
  M 76.15 92.67
  C 95.25 73.95 87.79 36.03 57.46 34.84
  C 30.10 33.77 10.53 62.01 22.61 86.84
  Q 25.12 92.01 29.76 95.56
  C 43.59 106.15 63.59 104.98 76.15 92.67
  Z
  M 32.81 98.69
  Q 30.89 97.57 30.27 96.70
  A 0.10 0.10 0.0 0 0 30.09 96.73
  Q 30.05 96.86 30.00 96.99
  Q 29.94 97.20 30.10 97.34
  C 54.38 118.87 93.03 102.25 91.11 69.04
  Q 90.41 56.95 82.39 46.84
  Q 81.87 46.18 81.09 46.01
  A 0.33 0.32 -19.9 0 0 80.82 46.58
  C 83.20 48.44 83.95 50.49 85.27 53.69
  C 95.42 78.48 75.52 105.21 49.35 103.78
  Q 40.78 103.31 32.81 98.69
  Z"
/>

<path fill="#b469ff" d="
  M 131.62 60.25
  C 124.49 64.80 125.30 76.15 132.40 80.11
  C 136.09 82.17 141.33 81.56 145.72 81.48
  A 0.59 0.59 0.0 0 1 146.32 82.08
  L 146.26 86.25
  A 0.72 0.72 0.0 0 1 145.59 86.96
  C 136.96 87.52 127.32 86.34 122.69 78.28
  C 116.81 68.02 122.57 56.08 134.14 53.35
  C 137.68 52.52 141.88 52.69 145.74 52.77
  Q 146.19 52.78 146.20 53.23
  L 146.36 57.74
  A 0.55 0.55 0.0 0 1 145.78 58.31
  C 140.22 58.09 135.44 57.81 131.62 60.25
  Z"
/>
<path fill="#b469ff" d="
  M 178.13 54.83
  C 186.17 60.06 184.01 70.78 175.50 73.91
  A 0.39 0.39 0.0 0 0 175.31 74.50
  L 184.09 86.92
  L 177.69 86.98
  Q 177.18 86.99 176.89 86.57
  L 169.21 75.51
  A 1.18 1.17 -17.2 0 0 168.24 75.00
  L 161.75 75.00
  Q 161.25 75.00 161.25 75.50
  L 161.25 86.38
  Q 161.25 87.00 160.62 87.00
  L 155.96 87.00
  A 0.49 0.48 -0.0 0 1 155.47 86.52
  L 155.51 70.25
  Q 155.51 69.77 156.00 69.77
  Q 163.91 69.71 171.75 69.76
  C 176.83 69.80 179.28 61.64 174.27 59.25
  C 170.61 57.51 160.32 58.49 155.94 58.51
  A 0.49 0.49 0.0 0 1 155.45 58.01
  L 155.49 53.55
  A 0.51 0.51 0.0 0 1 155.99 53.04
  C 162.95 52.90 171.81 52.05 178.13 54.83
  Z"
/>
<path fill="#b469ff" d="
  M 234.55 69.10
  L 250.02 53.10
  A 0.32 0.32 0.0 0 1 250.25 53.00
  L 257.18 53.00
  A 0.32 0.32 0.0 0 1 257.42 53.54
  L 234.12 78.49
  A 0.32 0.32 0.0 0 0 234.03 78.70
  L 233.66 86.45
  A 0.32 0.32 0.0 0 1 233.34 86.75
  L 228.32 86.75
  A 0.32 0.32 0.0 0 1 228.00 86.43
  L 228.00 53.32
  A 0.32 0.32 0.0 0 1 228.32 53.00
  L 233.62 53.00
  A 0.32 0.32 0.0 0 1 233.94 53.32
  L 234.00 68.88
  A 0.32 0.32 0.0 0 0 234.55 69.10
  Z"
/>
<rect fill="#b469ff" x="276.25" y="53.00" width="6.00" height="34.00" rx="0.52"/>
<path fill="#b469ff" d="
  M 325.90 86.97
  Q 325.55 86.75 325.53 86.80
  L 302.10 53.78
  A 0.50 0.49 72.3 0 1 302.50 53.00
  L 307.45 53.00
  A 0.94 0.94 0.0 0 1 308.21 53.39
  L 324.29 75.92
  A 0.25 0.25 0.0 0 0 324.75 75.77
  L 324.75 53.75
  Q 324.75 53.00 325.50 53.00
  L 330.00 53.00
  Q 330.50 53.00 330.50 53.50
  L 330.50 86.31
  Q 330.50 86.91 329.90 86.92
  L 325.90 86.97
  Z"
/>
<path fill="#b469ff" d="
  M 383.11 81.50
  L 400.17 81.50
  A 0.36 0.36 0.0 0 1 400.53 81.86
  L 400.60 86.64
  A 0.36 0.36 0.0 0 1 400.24 87.00
  L 377.36 87.00
  A 0.36 0.36 0.0 0 1 377.00 86.64
  L 377.00 53.36
  A 0.36 0.36 0.0 0 1 377.36 53.00
  L 382.39 53.00
  A 0.36 0.36 0.0 0 1 382.75 53.36
  L 382.75 81.14
  A 0.36 0.36 0.0 0 0 383.11 81.50
  Z"
/>
<rect fill="#b469ff" x="412.63" y="53.00" width="25.36" height="5.50" rx="0.44"/>
<path fill="#b469ff" d="
  M 202.98 81.18
  Q 203.68 81.44 203.71 82.19
  L 203.85 86.09
  A 0.80 0.80 0.0 0 1 202.79 86.88
  Q 189.59 82.39 189.57 70.17
  C 189.55 61.43 194.59 54.99 203.17 53.22
  A 0.51 0.51 0.0 0 1 203.78 53.71
  L 203.85 57.62
  Q 203.86 58.02 203.50 58.16
  C 193.29 62.28 192.12 77.17 202.98 81.18
  Z"
/>
<path fill="#b469ff" d="
  M 209.42 53.25
  C 227.79 55.97 227.50 82.39 209.58 86.69
  Q 209.00 86.83 209.00 86.23
  L 209.00 81.77
  Q 209.00 81.33 209.42 81.19
  C 220.35 77.53 219.61 62.87 209.55 58.55
  Q 209.05 58.34 209.03 57.79
  L 208.92 53.69
  A 0.44 0.43 -86.1 0 1 209.42 53.25
  Z"
/>
<path fill="#b469ff" d="
  M 349.48 58.27
  C 338.77 62.38 338.45 77.11 349.24 81.24
  Q 349.69 81.42 349.71 81.91
  L 349.84 86.08
  A 0.84 0.84 0.0 0 1 348.71 86.90
  Q 334.91 81.99 335.59 69.14
  C 336.04 60.83 340.96 54.92 349.09 53.24
  Q 349.66 53.12 349.69 53.70
  L 349.89 57.63
  A 0.64 0.64 0.0 0 1 349.48 58.27
  Z"
/>
<path fill="#b469ff" d="
  M 354.92 53.78
  A 0.57 0.57 0.0 0 1 355.62 53.21
  C 373.58 57.25 373.75 81.51 355.90 86.61
  A 0.90 0.90 0.0 0 1 354.75 85.74
  L 354.75 82.01
  A 0.83 0.83 0.0 0 1 355.32 81.22
  C 366.26 77.57 365.70 62.75 355.52 58.55
  Q 355.05 58.35 355.04 57.84
  L 354.92 53.78
  Z"
/>
<path fill="#b469ff" d="
  M 307.06 69.39
  L 306.99 86.47
  Q 306.99 87.00 306.45 87.00
  L 301.56 87.00
  Q 300.99 87.00 300.99 86.43
  L 300.90 69.60
  L 301.23 61.55
  Q 301.26 60.86 301.65 61.43
  L 307.06 69.39
  Z"
/>
<rect fill="#b469ff" x="412.63" y="67.00" width="22.86" height="5.50" rx="0.38"/>
<path fill="#b469ff" d="
  M 250.70 86.62
  L 242.49 76.67
  A 0.37 0.37 0.0 0 1 242.51 76.18
  L 246.10 72.40
  A 0.37 0.37 0.0 0 1 246.65 72.43
  L 257.45 86.15
  A 0.37 0.37 0.0 0 1 257.16 86.75
  L 250.98 86.75
  A 0.37 0.37 0.0 0 1 250.70 86.62
  Z"
/>
<rect fill="#b469ff" x="412.50" y="81.50" width="25.50" height="5.50" rx="0.60"/>
</svg>