<svg xmlns="http://www.w3.org/2000/svg" version="1.2" viewBox="281 23 500 500"><path fill="#8dc014" stroke="#000" stroke-miterlimit="100" stroke-width="8" d="M424 462c-6-6-11-11-12-19-1-4-3-7-7-7-5 0-8-3-9-8l-4-16-7-8c-11-5-13-6-10-18l5-14-21 3c1-14 9-23 13-37l-19 2h-8c1-3 0-6 2-8 9-13 18-27 29-39 8-7 13-15 13-26a196 196 0 0 1 54-119c0 9-11 13-9 23l5-2 3-3c19-25 46-39 74-50 5-2 8-1 11 2l25 20c5 3 6 2 11-2-15-9-28-19-30-38l10 4c14 10 27 20 36 36l7 6 2-1-2-9-14-19c-6-9-11-18-11-29-1-10 0-19 1-28 0-4 3-8 4-13h3l5 9c8 27 23 51 42 72 6 8 14 15 22 20 50 30 74 75 78 132 2 21 1 41-3 62-2 10-1 20 5 29 7 10 7 21 1 31l-7 12c-3 4-5 9-6 14-2 7-5 13-10 17l-3 4c-22 30-54 45-89 54-15 4-30 8-46 10-26 4-51-2-75-13-21-9-41-21-59-36z" paint-order="stroke fill markers"/><path d="M446 270v5l-10 18c-1 2-2 2-4 2l-9-3c0 2 2 3 3 4l15 14c11 13 19 29 26 46 4 9 8 17 14 25 3 4 7 7 13 6l-11-17c0-1-2-2-1-4l3-1c7 0 13-2 20-5 10-7 17-17 19-31 6 2 10 6 16 6 6 1 11-2 15-7l1 1c3 8 4 11 18 9 2 0 5-2 6-1 2 1 0 5 0 7-1 15 2 27 13 36-5 3-6 3-7-2-3-7-7-13-14-15-4-2-7-5-10-9-6-9-17-11-25-1-2 1-3 2-5 1-10-2-18 0-26 7l-2 2c-7 7-10 18-4 28v3l-3 4c3 1 5-1 8-2 9-3 17-3 24 5 4 5 10 7 15 5l8-3c5-2 10-3 15 2l2 1c7 1 13 2 19 6l-1-7c-3-6-2-8 3-11 14-7 27-17 38-31 4-5 8-8 13-11 14-6 28-11 42-14 2 0 4 0 7-2-9-4-18-4-27-2-4 0-5-1-4-5 1-9-1-17-4-24l-7-13 11 4-3-9c7-2 12 1 16 8l3 6c0 2 0 4 2 3 2 0 1-2 0-4l-1-10c-1-3 1-4 3-3 8 0 14 4 19 10 0-12-7-18-15-24 6-1 10 1 15 1-1-3-3-4-5-5-8-6-18-8-28-4l-31 10-1 1 1-2 19-18c1 0 0 0 0 0-10 1-19 5-28 12-8 7-15 17-21 26-9 13-20 23-32 32-3 2-6 2-7-1-4-9-6-18-4-28l1-9c-1-7 0-13 3-19 5-11 11-21 20-28l12-11c-20 4-34 16-40 39l-20-27c-1-1-2-5-3-4a1299 1299 0 0 0 13 29c8 15 11 30 3 48-1 1-2 9-5 14l-8-13-27-44c-7-9-15-16-23-16l8 16h-1l-3-2c-12-10-23-22-32-36-1-1-1-4-3-3v5c0 5 2 10 1 16l-23-36-1 1 2 17-15-16-2-2v3l10 25c4 10 9 20 18 26zm127 128-3 1c-2 0-4 2-5 0 0-3 2-3 4-4l1-1c-6-3-11-4-17 0-8 6-16 5-23-3-4-4-9-5-15-4-3 1-6 2-9-1-3-5-3-10 3-13l13-8c3-2 5-2 7 0 3 2 5 0 7-2 3-5 7-8 12-7 4 1 6 3 8 6 3 2 4 5 6 9 2 2 3 4 5 2h2c4 5 9 8 10 16 0 5-1 7-6 9zm17-59c0-7 2-9 10-11v7c0 12 9 18 18 12 13-8 19-27 13-43 6-7 9-7 14 1s8 17 4 27c-2 4-4 7-7 8-11 4-19 13-27 22-4 5-9 10-16 7-3-2-5-4-6-8-3-7-4-14-3-22zm28-23c10-3 8 14-1 17-13 3-10-13 1-17zm-170-22 4-10c4-4 7-5 12-2l14 8c-13 17-5 32 5 39 6 4 12 2 17-4 4-5 6-10 8-17 7 4 9 10 7 20-5 18-21 28-36 24l-5-5-14-30c-2-4-5-7-9-10-4-4-5-7-3-13zm44 5c15 9 2 17-1 16-19-5-7-20 1-16z"/><path d="M529 493c24-10 48-19 71-30 10-5 18-13 25-20 8-8 10-20 23-22-7-8-21-10-28-5 8 10 9 11-1 21-8 9-18 18-29 23-20 10-41 17-61 26-8 3-14 1-20-4l-18-17c-17-17-32-35-43-57l-5-13 11-2c-7-10-24-13-34-6l4 3c7 1 10 7 13 13 4 9 8 19 14 26l50 58c8 9 18 10 28 6z"/><path d="M515 473c6-8 8-20 6-34-11 8-14 26-6 34z"/></svg>