<svg xmlns="http://www.w3.org/2000/svg" version="1.2" viewBox="0 0 500 500"><path fill="#d00000" fill-rule="evenodd" d="M153 368c2-19 17-39 24-58l15-50c8-21 21-41 30-62 6-13 11-32 22-43 10-10 22-18 35-24l16-4c24-12 83-25 109-14 9 4 16 10 23 15 9 5 17 10 22 19 5 8 8 17 9 27l3 27c1 21 3 45 8 65 2 10 4 43 2 44-4 3-21 1-41-14-9-6-24-26-24-25-10 28 6 79 19 103 4 8 9 22 10 30"/><path fill="#ffeec5" fill-rule="evenodd" d="M442 282c-4 1-18 18-17 22 0 3 6 5 5 7 0 5-5 13-1 18 6 5 17-1 19-1 2 1 4 4 6 4 5 2 12 4 18 3 3 0 8-3 9-6l1-6h5c5 0 11-2 14-6 2-3 6-11 3-15-2-1-7-3-7-5-3-12 4-18-7-28-4-4-11-1-15 0-2 0-11-6-16-5-3 0-6 7-8 9-1 2-3 3-3 6"/><path fill="#ffeec5" fill-rule="evenodd" d="M307 361c-15-2-33-1-47-3l-78-8c-14-1-37-7-48 4-12 12-4 22 9 28 22 9 45 10 69 12 48 5 96 9 144 17l14 4 32 3 27 5c6 1 12 5 19 4l6-3 5-4c0-2-3-3-2-5l4-7c3-7-4-16-9-21-4-4-10-4-14-6-17-5-31-10-49-11-23-3-47-7-72-8"/></svg>