<svg xmlns="http://www.w3.org/2000/svg" version="1.2" viewBox="0 0 500 500"><path fill="#d00000" fill-rule="evenodd" d="M477 380c-8-22-26-48-36-69-22-45-37-59-69-87-24-22-67-54-92-74-37-29-78-43-121-63-20-9-39-17-60-19-3-1-15-4-18 0s1 16 2 21c2 18 13 38 19 55 21 64 16 77 28 165 2 15-19 86-11 97 1 2 12 2 14 2"/><path fill="#ffeec5" fill-rule="evenodd" d="M490 357c4 8 2 40-2 44-6 6-21 11-29 13-20 4-38 5-58 8-29 3-41 7-70 7-20 0-40-2-59 0-27 3-55 4-82 4-29 0-49 4-76-2-4-1-22-13-23-16-2-4-6-16-6-21-1-10-4-21 5-27 4-3 15-11 20-11 24-3 35-3 58-3 69 0 140 2 208-9 17-3 34-9 52-12l28-4c11-2 23 5 34 29z"/><path fill="#ffeec5" fill-rule="evenodd" d="M114 17C92-2 33 1 15 28c-4 7-4 16-4 25 0 5-1 11 1 15 10 28 46 31 71 31 10 0 21 1 31-2 9-3 22-6 28-14 18-22-5-56-28-66"/></svg>