<svg xmlns="http://www.w3.org/2000/svg" version="1.0" viewBox="0 0 410.4 285.2"><path fill="#d00000" fill-rule="evenodd" stroke="#000" stroke-width=".8" d="M225 4c-28 8-57 24-77 38-20 15-73 53-85 65-12 11-26 15-32 29-2 6 16 22 20 24 9 5 24-3 31-4 22-1 45-4 67 11-4 4 3 0-6 37-3 13-9 47-1 53 8 7 13-18 21-15v1-1c4-1 33-14 60-8 16 3 40-6 54-10 22-7 53-13 72-13 15-1 28-9 42-10 8 0 1-27 0-30 0-13-17-34-26-52-8-18-23-42-39-60s-37-42-52-49c-15-8-18-14-49-6z"/><path fill="#0e0000" fill-rule="evenodd" d="M158 69c-18 4-34 63-56 73-15 6-55 16-51 18 9 5 24-3 31-4 22-1 45-4 67 11-4 4 3 0-6 37-3 13-9 47-1 53 8 7 13-18 21-15v1-1c4-1 33-14 60-8 16 3 40-6 54-10 22-7 53-13 72-13 15-1 28-9 42-10 8 0-51 5-28-12 11-8-104 16-149-35-44-50-37-90-56-85z" opacity=".1"/><path fill-rule="evenodd" stroke="#000" stroke-width=".8" d="M33 130c4 3 27 33 30 31 1-4-2-5-4-5 2-4 3-7-2-7-5-1-10-2-5-7 3-3 0-9-1-12-4-2-7-6-9-8" opacity=".3"/><path fill-rule="evenodd" stroke="#000" stroke-width=".6" d="M357 195c-8-2-17-5-24-5-4-4-8 1-12 2 0-7-11 3-16 3-3 2-1-6-7-3l-18 4c-1 8-13 13-15 4-7 3-19 8-19-1-11 8-11 16-21 20 1-7-23-11-26-4-6 3 1-9-8-6-10-3-4 18-25 10-12-1-6 16-13 23-2 8-11-2-15-2 1 12 3 8 1 16-2 11-4 16 7 18 4-5 0-3 1 6 6-2 15-13 14-2 4-6 18-10 18-17 7 1 15 9 21-1 6-7 14-10 14-5 7 7 8 6 16 4-2-9 17-1 7-9 4-5 15-7 22-5 5 8 23 8 25-2 1-9 14-11 19-6 8-7 22 4 29-2-6-9 9-14 12-8 6-3 12-14 18-6l23-8c4 8 16 0 11-10-3-6 9 4 6-5-4-9-9-22-15-21-9-2-14 4-15 12 0-6-10 0-16 2l-3 1-3-3" opacity=".3"/><path fill="#fff" fill-rule="evenodd" stroke="#000" stroke-width=".6" d="M362 197c-8-2-15-3-21-2-5-4-10-3-14-1-1-8-10 6-15 6-3 2-1-6-7-3-7 1-16-4-22-1-1 8-13 12-15 3-6 3-15 14-15 5-12 0-17 12-28 16 1-7-15-7-18 0-7 3-2-13-11-10-11-3-11 18-23 13-12 0-10 12-18 19-2 8-6 3-10 3 6 9-18 7-11 20-1 10 1 18 12 20 4-5 7-9 8 0 7-2 15-13 14-2 5-6 18-10 18-17 7 1 15 9 21-1 6-7 7-1 7 4 7 7 16-3 23-5-2-9 18-1 7-9 4-5 16-7 22-6 6 6 23 9 26-1 0-9 13-12 18-6 9-7 22 4 30-2-7-9 9-14 12-8 6-3 11-14 18-6l22-8c5 7 17 0 12-10-3-6 9 3 6-5 0-10-4-25-16-21-9-2-14 4-14 12 0-6-14-4-20-2l-2 1-1 1"/><path fill="none" stroke="#000" stroke-width=".8" d="M147 187c3-41 24-60 20-93-2-19-20-4-14 14"/><path fill-rule="evenodd" d="M155 242c-2 8-6 3-10 4 6 8-18 6-11 19-2 11 1 18 12 20 4-5 7-9 8 0 6-2 15-13 14-1 4-7 18-11 18-18 7 1 15 8 21-2 6-7 7 0 7 5 7 7 16-3 23-5-2-9 9-1 7-9-1-5 34-4 29-9-15-15-38 8-42 6-3-1-7 0-2-2 5-3-7 1-16-2-10-4-17 1-17 9-8-5-8 1-19 4 7-11-13-3-13-3s4-12-3-10c4-6 0-8 0-8s2-5-6 2z" opacity=".1"/><path fill="#fff" fill-rule="evenodd" stroke="#000" stroke-width=".8" d="m38 122-6-5c1-2-2-1-3-2-4 3-10 5-13 10v-1c-4 1-7 4-6 9 0 2-2 4 1 4 0 4-6 3-6 7 2 3 1 6-2 9-2 2-1 6-1 9-2 2-2 4-1 6 1 4 4 6 4 10 1 2 4 1 5 4 4 0 4 5 7 6l10 1 7 4c4 2 5-4 7-6 0-3 2-3 4 0 3 2 6-2 8-4l7-6c4-4 5-10 5-15 0-3-3-3-5-4 1-2 3-6-1-6-3-1-9-4-5-7 2-3-1-7-3-10l-6-7c-3-1-6-3-7-6v1"/><path fill-rule="evenodd" d="M12 157c-2-2 4-1 4-3 1-2 0-2-1-3-4 3-3-5-6 0 1-1 1-6-1-5-3 2-3-6-3-2 2 3 1 6-2 9-2 2-1 6-1 9-2 2-2 4-1 6 1 4 4 6 4 10 1 2 4 1 5 4 4 0 4 5 7 6l10 1 7 4c4 2 5-4 7-6 0-3 2-3 4 0 3 2 6-2 8-4s-8 1-6-1c4-4-7 5-8 0 1-3-12 4-9-2 1-2 1 0-3-1-3 0-10-5-7-8s-1 0-3-3l-2-3c-3-1-2-2-3-5v-3z" opacity=".1"/><path fill-opacity=".2" fill-rule="evenodd" d="M149 168s13-34 16-47c3-12 3-32-2-35-4-4-10 3-11 10 0 7-1 9 2 23 2 6 1 21-1 28s-6 23-4 21z"/></svg>