<svg xmlns="http://www.w3.org/2000/svg" version="1.2" viewBox="0 0 500 500"><path fill="#d00000" fill-rule="evenodd" d="M153 376c21-43 40-87 62-129l24-39c3-5 4-11 8-15 1-2 2-8 3-6l-2 3c-10 4-21 6-30 12a429 429 0 0 1-167 52c-3 0-15 4-13-1 10-25 47-49 66-65 61-52 120-116 201-133 26-5 52-3 79-3 9 0 22-2 29 6 5 7 8 17 12 25 25 43 27 64 35 114l6 34c1 18 0 35 2 53 2 23 4 48 8 71 1 10 4 20 4 30"/><path fill="#ffeec5" fill-rule="evenodd" d="M469 368c7 0 18 3 24 10 7 9-2 36-11 41-10 6-31 3-42 3-45 2-89 0-134 0-33 0-69 3-101-6-22-6-74-4-76-35v-17c5-37 59-23 83-19l86 15c21 4 42 2 63 4l33 6c16 2 25 7 38 3l32-4"/><path fill="#ffeec5" fill-rule="evenodd" d="M54 222c-9-6-28-5-37-1-20 11-20 43-11 60 3 5 8 9 12 12 5 3 11 2 16 2 26 0 35-19 35-42 0-10-11-29-15-32z"/></svg>