<svg xmlns="http://www.w3.org/2000/svg" version="1.2" viewBox="0 0 500 500"><path fill="#d00000" fill-rule="evenodd" d="M434 395c1-16-11-47-17-61-17-40-16-43-17-57-2-11 8-31 19-36 9-4 17 7 22 13 7 8 15 16 20 25 4 6 2 16 7 22 2 2 4-5 5-6 1-8 3-16 2-25l-2-21c-3-18-13-38-21-54-13-23-29-42-49-60-65-57-102-31-188 36-62 48-64 105-63 179 0 19-9 38-7 57"/><path fill="#ffeec5" fill-rule="evenodd" d="M450 286c-6 3-3 15-3 20 1 2 0 7 2 8s4-3 6-2l1 9c2 6 11 7 16 5 4-1 7-5 11-7 5-2 19 2 21-6 2-5-10-4-11-9-1-3 1-7-1-11l-5-11v-9c-1-3-10-7-13-7-7 0-9 6-16 7"/><path fill="#ffeec5" fill-rule="evenodd" d="M163 373c-5-9-32 6-37 11-2 2 0 31 1 33 3 4 10 2 13 5s-1 11 3 13c21 11 29-11 46-12 7-1 7 7 13 10 8 6 21 2 28-4l2-4c0-2 1-7 2-6l2 4c3 9 5 14 16 9 4-2 2-9 5-9 3-1 4 8 8 8 9 1 18-4 25-6 4-2 6 5 11 2 3-1 10-15 14-11 4 2 9 11 18 13 5 1 16 0 21-2 2-1 4-5 7-5 5-1 7 7 18 3 4-1 5-8 9-8 2-1 11 6 14 7 12 3 9-4 13-9 1-3 18 2 22 2 14 0 13-5 22-15 3-4 9-5 10-12s-5-21-13-21c-3 0-10 3-13 1-4-2-5-9-9-13-8-7-21-11-32-9-6 1-8 10-13 10-4 0-8-4-11-6-5-2-14-2-19-1-4 1-7 5-10 7-6 4-19 5-26 5-9-1-17-10-26-12-6-2-9 3-14 4l-9-4c-4-1-9 0-13 1-11 1-20 13-25 13-9 1-21-10-30-5-4 2-7 9-11 12-5 3-11 3-17 3"/></svg>