<svg xmlns="http://www.w3.org/2000/svg" version="1.2" viewBox="0 0 500 500"><path fill="#d00000" fill-rule="evenodd" d="M132 407c1-20 10-41 15-60 4-14 5-29 8-42s8-25 12-38c10-30 22-61 30-91 9-31 25-59 36-89l8-25 2-3a451 451 0 0 1 68 68c24 30 44 63 62 97 12 24 20 50 30 75 4 9 10 16 14 24 9 17 19 36 31 52 4 6 8 16 16 19"/><path fill="#ffeec5" fill-rule="evenodd" d="M125 385c-15 7-15 37-2 46 8 4 19-5 23-4 11 6 8 17 25 13l6-7 1-6c2 0 8 11 10 13 3 4 14 2 19 1 6-2 13-17 14-17 4-1 9 8 11 10 3 3 9 3 13 3 6 0 13 0 19-2l8-7 9 3c4 2 17 1 22-1 6-2 10-8 15-11 1 0 4 4 6 4 3 1 13 0 16-1 5-1 7-11 10-12 5-1 11 7 16 7 13 1 17-5 27-11 2-1 14 8 19 8 9-1 16-4 24-9l4-5c6-1 11 4 17 6 10 2 23-8 23-18 1-20-16-36-36-32-7 1-14 9-22 9-7 1-12-1-18-4-14-6-23-15-40-11-7 2-13 14-21 14-10 0-17-10-27-10-11-1-17 8-26 10-8 2-15-2-23 0s-24 21-31 20l-2-5c-2-3-7-9-11-11-19-5-24 13-33 16-3 1-14-9-19-9-9-1-37 7-46 10z"/><path fill="#ffeec5" fill-rule="evenodd" d="M220 79c0 12 12 12 21 11 2 0 4-4 6-3 2 0 3 3 5 4 4 3 13 5 17 1 6-5 6-14 6-21l-2-3 5-1c3-3 2-9 1-13-3-7-19-16-27-12-2 1-3 6-4 7l-6-3c-6-1-16-1-20 2-3 2-5 6-3 10l5 2 1 1-5 1c-4 2-8 9-2 11"/></svg>